<?xml version="1.0" standalone="no"?>
<!DOCTYPE svg PUBLIC "-//W3C//DTD SVG 20010904//EN"
 "http://www.w3.org/TR/2001/REC-SVG-20010904/DTD/svg10.dtd">
<svg version="1.0" xmlns="http://www.w3.org/2000/svg"
 width="260.000000pt" height="260.000000pt" viewBox="0 0 260.000000 260.000000"
 preserveAspectRatio="xMidYMid meet">
<metadata>
Created by potrace 1.11, written by Peter Selinger 2001-2013
</metadata>
<g transform="translate(0.000000,260.000000) scale(0.100000,-0.100000)"
fill="#000000" stroke="none">
<path d="M661 2413 c-18 -9 -43 -33 -56 -52 -28 -44 -555 -952 -580 -1000 -37
-73 -32 -85 269 -606 341 -588 322 -559 367 -584 35 -20 53 -21 303 -21 l266
0 0 405 0 405 -235 0 -235 0 0 -65 0 -65 -44 0 -44 0 -61 104 c-34 58 -61 114
-61 126 0 12 13 35 29 51 l29 29 702 0 702 0 30 -30 c39 -40 35 -59 -37 -183
l-57 -97 -44 0 -44 0 0 65 0 65 -235 0 -235 0 0 -405 0 -405 265 0 c284 0 296
2 342 52 12 12 152 250 312 527 l291 505 0 62 0 62 -295 509 c-200 346 -305
516 -326 533 l-32 25 -279 3 -278 3 0 -406 0 -405 235 0 235 0 0 65 0 65 45 0
44 0 61 -102 c33 -56 60 -113 60 -126 0 -13 -13 -37 -29 -53 l-29 -29 -702 0
-701 0 -24 24 c-45 45 -42 65 25 180 l62 106 44 0 44 0 0 -65 0 -65 235 0 235
0 0 405 0 405 -267 0 c-229 0 -273 -3 -302 -17z"/>
</g>
</svg>
