<svg xmlns="http://www.w3.org/2000/svg" viewBox="0 0 19.78 23.12"><defs><style>.cls-1{fill:#ebdd2f;}</style></defs><title>pockets icon</title><g id="Layer_2" data-name="Layer 2"><g id="Layer_1-2" data-name="Layer 1"><path class="cls-1" d="M14.94,2.54v-1H7.63a.35.35,0,0,1-.35-.32A.34.34,0,0,1,7.61.87h7.56a.43.43,0,0,1,.43.43V2.54h.87V.62A.62.62,0,0,0,15.85,0h-9a.29.29,0,0,0-.29.29V2.54Z"/><path class="cls-1" d="M6.51.89h-3a.24.24,0,0,0-.24.24V2.24h3.2Z"/><path class="cls-1" d="M19.41,2.24H.33A.33.33,0,0,0,0,2.57V7.43a.33.33,0,0,0,.33.33H19.41a.33.33,0,0,0,.33-.33V2.57A.33.33,0,0,0,19.41,2.24ZM18.5,6.19a.33.33,0,0,1-.33.33H1.57a.33.33,0,0,1-.33-.33V3.8a.33.33,0,0,1,.33-.33H18.17a.33.33,0,0,1,.33.33Z"/><path class="cls-1" d="M.37,9.35A.33.33,0,0,0,0,9.68v6.93a1.91,1.91,0,0,0,1,1.65l8,4.59a1.91,1.91,0,0,0,1.91,0l8-4.6a1.91,1.91,0,0,0,1-1.65V9.68a.33.33,0,0,0-.33-.33Zm18.17,7.26a.67.67,0,0,1-.34.58l-8,4.6a.68.68,0,0,1-.67,0l-8-4.6a.67.67,0,0,1-.34-.58v-5.7a.33.33,0,0,1,.33-.33H18.21a.33.33,0,0,1,.33.33Z"/><path class="cls-1" d="M3.08,5.7h.46S3.93,5,3.93,5s-.39-.7-.39-.7H2.73S2.34,5,2.34,5s.39.7.39.7Z"/><path class="cls-1" d="M16.59,5.7H17s.39-.68.39-.7S17,4.3,17,4.3h-.81s-.39.68-.39.7.39.7.39.7Z"/><path class="cls-1" d="M3.08,12.81h.46s.39-.68.39-.7-.39-.7-.39-.7H2.73s-.39.68-.39.7.39.7.39.7Z"/><path class="cls-1" d="M16.59,12.81H17s.39-.68.39-.7-.39-.7-.39-.7h-.81s-.39.68-.39.7.39.7.39.7Z"/></g></g></svg>