<svg xmlns="http://www.w3.org/2000/svg" viewBox="0 0 432 381.5"><defs><style>.cls-1{fill:#4170a0;}</style></defs><title>Tokenly_Icon</title><g id="Layer_2" data-name="Layer 2"><g id="Layer_1-2" data-name="Layer 1"><path class="cls-1" d="M428.31,177,334.07,13.76A27.52,27.52,0,0,0,310.24,0h-79.4V133.89h74V112.84h17.72l18.13,31.4a12.52,12.52,0,0,1,0,12.71,12.75,12.75,0,0,1-11.22,6.54H102.56a12.75,12.75,0,0,1-11.22-6.54,12.52,12.52,0,0,1,0-12.71l18.13-31.4h17.72v21.05h74V0h-79.4A27.52,27.52,0,0,0,97.93,13.76L3.69,177a27.52,27.52,0,0,0,0,27.52L97.93,367.74a27.52,27.52,0,0,0,23.84,13.76h79.4V247.61h-74v21.06H109.47l-18.13-31.4a12.52,12.52,0,0,1,0-12.71A12.75,12.75,0,0,1,102.56,218H329.44a12.75,12.75,0,0,1,11.22,6.54,12.52,12.52,0,0,1,0,12.71l-18.13,31.4H304.81V247.61h-74V381.5h79.4a27.52,27.52,0,0,0,23.84-13.76l94.24-163.23A27.52,27.52,0,0,0,428.31,177Z"/></g></g></svg>