<svg xmlns="http://www.w3.org/2000/svg" viewBox="0 0 833.2 189.33"><defs><style>.cls-1{fill:#1a1a1a;}.cls-2{fill:#4170a0;}</style></defs><title>Tokenly_Horizontal</title><g id="Layer_2" data-name="Layer 2"><g id="Layer_1-2" data-name="Layer 1"><path class="cls-1" d="M260.06,24.66h11.67V70.58h20V82.25h-20v47.81h14.68v11.1H260.06V82.25h-16V70.58h16Z"/><path class="cls-1" d="M305,105.78A35.78,35.78,0,0,1,308,91.48a36.57,36.57,0,0,1,8-11.76,38.56,38.56,0,0,1,11.86-7.91,36.27,36.27,0,0,1,14.49-2.92,37.44,37.44,0,0,1,14.78,2.92,38.28,38.28,0,0,1,12,7.91,36.6,36.6,0,0,1,8,11.76,36.76,36.76,0,0,1,0,28.7,36.83,36.83,0,0,1-8,11.67,38.16,38.16,0,0,1-12,7.91,37.44,37.44,0,0,1-14.78,2.92,36.27,36.27,0,0,1-14.49-2.92A38.44,38.44,0,0,1,316,131.85a36.8,36.8,0,0,1-8-11.67A35.55,35.55,0,0,1,305,105.78Zm11.67.19a24.39,24.39,0,0,0,2,9.81,25,25,0,0,0,5.39,7.94A25.46,25.46,0,0,0,342,131a25.84,25.84,0,0,0,10-2,26.22,26.22,0,0,0,8.22-5.32A24.47,24.47,0,0,0,367.73,106a25.33,25.33,0,0,0-7.46-18A25.43,25.43,0,0,0,352,82.52a25.89,25.89,0,0,0-10-2,25.2,25.2,0,0,0-9.92,2,24.62,24.62,0,0,0-8,5.42,25.93,25.93,0,0,0-5.39,8.13A25.06,25.06,0,0,0,316.72,106Z"/><path class="cls-1" d="M440.57,130.06h5.65q-4.33-5.6-8.47-11.21t-8.09-11.21l-10.73,9.9v12.51h13.36v11.1H393.13v-11.1h14.12V11.67h-12.8V0h24.47V103.73l23.15-21.47h-9.22V70.58h36.33V82.25H456.57l-9.32,8.87L437.93,100q5.46,7.47,11,14.94t11,15.13h16.94v11.1H440.57Z"/><path class="cls-1" d="M560.09,97.88l-54.77,20.89a24,24,0,0,0,8.94,8.9A25.56,25.56,0,0,0,527.34,131a24.6,24.6,0,0,0,9.51-1.83,23.92,23.92,0,0,0,7.62-4.95q1.69,2.07,3.48,4.23t3.67,4.24a36.8,36.8,0,0,1-11,7.34,33.22,33.22,0,0,1-13.27,2.64,36.27,36.27,0,0,1-14.49-2.92A38.44,38.44,0,0,1,501,131.85a36.8,36.8,0,0,1-8-11.67,36.77,36.77,0,0,1,0-28.7,36.57,36.57,0,0,1,8-11.76,38.56,38.56,0,0,1,11.86-7.91,36.27,36.27,0,0,1,14.49-2.92,28.29,28.29,0,0,1,11,2.17,32.6,32.6,0,0,1,9.41,6,40.37,40.37,0,0,1,7.44,9.22A46.24,46.24,0,0,1,560.09,97.88ZM527.18,80.56a25.87,25.87,0,0,0-10.82,2.24,25.36,25.36,0,0,0-8.36,6,24.72,24.72,0,0,0-5.12,8.6,23.34,23.34,0,0,0-1.14,10.28q10.82-4.14,21.65-8.19T545,91.29a22.91,22.91,0,0,0-7.5-7.77A18.88,18.88,0,0,0,527.18,80.56Z"/><path class="cls-1" d="M627.47,130.06h14.68V94.81a15.67,15.67,0,0,0-4-9.56q-3.67-4.12-11.2-4.5a27.94,27.94,0,0,0-10.26,1.88,30.07,30.07,0,0,0-8.56,5.06,23.33,23.33,0,0,0-5.93,7.59,21.59,21.59,0,0,0-2.17,9.66v25.13h13v11.1H573.83v-11.1h14.49v-48h-13V70.58h23l.19,4.14q.19,4,.47,7.06t.47,7.06a30.83,30.83,0,0,1,12.14-14.4,34,34,0,0,1,18.73-5.36q10.73,0,16.94,5.83t6.59,15.25v39.9h12.8v11.1H627.47Z"/><path class="cls-1" d="M679.8,130.06h14.12V11.67h-12.8V0h24.47V130.06h13.37v11.1H679.8Z"/><path class="cls-1" d="M742.85,177.12h16.38q4.33-9,8.94-18t8.94-17.79q-7.53-14.77-15-29.55t-15-29.55H732.12V70.58h38.4V82.25h-11.1q6.4,12,12.61,24.09t11.1,24.28q4.89-12,11.11-24.09t12.61-24.28H795.56V70.58H833.2V82.25H818.71q-12,23.81-24,47.34T770.9,177.12h10.73v11.11H742.85Z"/><path class="cls-2" d="M212.56,87.83l-46.77-81A13.66,13.66,0,0,0,154,0h-39.4V66.45h36.71V56h8.79l9,15.58a6.21,6.21,0,0,1,0,6.31,6.33,6.33,0,0,1-5.57,3.25H50.9a6.33,6.33,0,0,1-5.57-3.25,6.21,6.21,0,0,1,0-6.31l9-15.58h8.79V66.45H99.83V0H60.43A13.66,13.66,0,0,0,48.6,6.83l-46.77,81a13.66,13.66,0,0,0,0,13.66l46.77,81a13.66,13.66,0,0,0,11.83,6.83h39.4V122.88H63.12v10.45H54.33l-9-15.58a6.21,6.21,0,0,1,0-6.31,6.33,6.33,0,0,1,5.57-3.25H163.49a6.33,6.33,0,0,1,5.57,3.25,6.21,6.21,0,0,1,0,6.31l-9,15.58h-8.79V122.88H114.56v66.45H154a13.66,13.66,0,0,0,11.83-6.83l46.77-81A13.66,13.66,0,0,0,212.56,87.83Z"/></g></g></svg>