<svg xmlns="http://www.w3.org/2000/svg" viewBox="0 0 664.44 938.73"><defs><style>.cls-1{fill:#42719f;}.cls-2{fill:#4c4a4b;}</style></defs><title>bg</title><g id="Layer_2" data-name="Layer 2"><g id="Layer_1-2" data-name="Layer 1"><path class="cls-1" d="M487.92,311.21V269.44a3,3,0,0,1,1.47-2.55l36-20.78v41.77a3,3,0,0,1-1.47,2.55Z"/><path class="cls-2" d="M572.79,678.26a9.88,9.88,0,0,1-4.93-1.31l-38-21.93a9.9,9.9,0,0,1-4.93-8.54V602.61a9.9,9.9,0,0,1,4.93-8.54l38-21.93a9.9,9.9,0,0,1,9.87,0l38,21.93a9.89,9.89,0,0,1,4.94,8.54v43.86A9.89,9.89,0,0,1,615.7,655l-38,21.93A9.86,9.86,0,0,1,572.79,678.26Zm0-100.52a3,3,0,0,0-1.47.39l-38,21.93a3,3,0,0,0-1.47,2.55v43.86a3,3,0,0,0,1.47,2.55l38,21.93a3,3,0,0,0,2.95,0l38-21.93a3,3,0,0,0,1.47-2.55V602.61a3,3,0,0,0-1.47-2.55l-38-21.93A2.94,2.94,0,0,0,572.79,577.74Z"/><path class="cls-2" d="M572.78,526.92a9.87,9.87,0,0,1-4.94-1.32l-38-21.93a9.9,9.9,0,0,1-4.93-8.54V451.27a9.9,9.9,0,0,1,4.93-8.54l38-21.93a9.9,9.9,0,0,1,9.87,0l38,21.93a9.9,9.9,0,0,1,4.94,8.54v43.86a9.9,9.9,0,0,1-4.93,8.54l-38,21.93A9.86,9.86,0,0,1,572.78,526.92Zm0-100.52a3,3,0,0,0-1.47.39l-38,21.93a3,3,0,0,0-1.47,2.55v43.86a3,3,0,0,0,1.47,2.55l38,21.93a3,3,0,0,0,2.94,0l38-21.93a3,3,0,0,0,1.47-2.55V451.27a3,3,0,0,0-1.47-2.55l-38-21.93A3,3,0,0,0,572.78,426.4Z"/><path class="cls-2" d="M218.29,420.29a9.87,9.87,0,0,1-4.93-1.32l-38-21.93a9.89,9.89,0,0,1-4.93-8.54V344.64a9.89,9.89,0,0,1,4.93-8.54l38-21.93a9.9,9.9,0,0,1,9.87,0l38,21.93a9.89,9.89,0,0,1,4.93,8.54V388.5A9.89,9.89,0,0,1,261.2,397l-38,21.93A9.87,9.87,0,0,1,218.29,420.29Zm0-100.52a2.94,2.94,0,0,0-1.47.39l-38,21.93a3,3,0,0,0-1.47,2.55V388.5a3,3,0,0,0,1.47,2.55l38,21.93a3,3,0,0,0,2.94,0l38-21.93a3,3,0,0,0,1.47-2.55V344.64a3,3,0,0,0-1.47-2.55l-38-21.93A2.94,2.94,0,0,0,218.29,319.77Z"/><path class="cls-2" d="M174.31,342.94a9.86,9.86,0,0,1-4.93-1.32l-38-21.93a9.89,9.89,0,0,1-4.93-8.54V267.29a9.89,9.89,0,0,1,4.93-8.54l38-21.93a9.88,9.88,0,0,1,9.87,0l38,21.93a9.89,9.89,0,0,1,4.93,8.54v43.86a9.89,9.89,0,0,1-4.93,8.54l-38,21.93A9.87,9.87,0,0,1,174.31,342.94Zm0-100.52a2.94,2.94,0,0,0-1.47.39l-38,21.93a3,3,0,0,0-1.47,2.55v43.86a3,3,0,0,0,1.47,2.55l38,21.93a3,3,0,0,0,2.94,0l38-21.93a3,3,0,0,0,1.47-2.55V267.29a3,3,0,0,0-1.47-2.55l-38-21.93A2.94,2.94,0,0,0,174.31,242.42Z"/><path class="cls-2" d="M439.9,395.45a9.86,9.86,0,0,1-4.93-1.32L397,372.2a9.9,9.9,0,0,1-4.93-8.54V319.8a9.89,9.89,0,0,1,4.93-8.54l38-21.93a9.9,9.9,0,0,1,9.87,0l38,21.93a9.89,9.89,0,0,1,4.94,8.54v43.86a9.9,9.9,0,0,1-4.94,8.54l-38,21.93A9.86,9.86,0,0,1,439.9,395.45Zm0-100.52a3,3,0,0,0-1.47.39l-38,21.93A3,3,0,0,0,399,319.8v43.86a3,3,0,0,0,1.47,2.55l38,21.93a3,3,0,0,0,2.94,0l38-21.93a3,3,0,0,0,1.47-2.55V319.8a3,3,0,0,0-1.47-2.55l-38-21.93A2.94,2.94,0,0,0,439.9,294.93Z"/><path class="cls-2" d="M484.28,319.63a9.86,9.86,0,0,1-4.93-1.32l-38-21.93a9.89,9.89,0,0,1-4.93-8.54V244a9.89,9.89,0,0,1,4.93-8.54l38-21.93a9.9,9.9,0,0,1,9.87,0l38,21.93a9.89,9.89,0,0,1,4.94,8.54v43.86a9.89,9.89,0,0,1-4.94,8.54l-38,21.93A9.86,9.86,0,0,1,484.28,319.63Zm0-100.52a3,3,0,0,0-1.47.39l-38,21.93a3,3,0,0,0-1.47,2.55v43.86a3,3,0,0,0,1.47,2.55l38,21.93a3,3,0,0,0,2.94,0l38-21.93a3,3,0,0,0,1.47-2.55V244a3,3,0,0,0-1.47-2.55l-38-21.93A2.94,2.94,0,0,0,484.28,219.11Z"/><path class="cls-2" d="M395.51,370a9.86,9.86,0,0,1-4.93-1.32l-38-21.93a9.9,9.9,0,0,1-4.93-8.54V294.38a9.89,9.89,0,0,1,4.93-8.54l38-21.93a9.9,9.9,0,0,1,9.87,0l38,21.93a9.89,9.89,0,0,1,4.94,8.54v43.86a9.9,9.9,0,0,1-4.94,8.54l-38,21.93A9.86,9.86,0,0,1,395.51,370Zm0-100.52a3,3,0,0,0-1.47.39l-38,21.93a3,3,0,0,0-1.47,2.55v43.86a3,3,0,0,0,1.47,2.55l38,21.93a3,3,0,0,0,2.94,0l38-21.93a3,3,0,0,0,1.47-2.55V294.38a3,3,0,0,0-1.47-2.55L397,269.9A2.94,2.94,0,0,0,395.51,269.51Z"/><path class="cls-2" d="M395.51,472.37a9.86,9.86,0,0,1-4.93-1.32l-38-21.93a9.89,9.89,0,0,1-4.93-8.54V396.72a9.89,9.89,0,0,1,4.93-8.54l38-21.93a9.9,9.9,0,0,1,9.87,0l38,21.93a9.89,9.89,0,0,1,4.94,8.54v43.86a9.89,9.89,0,0,1-4.94,8.55l-38,21.93A9.86,9.86,0,0,1,395.51,472.37Zm0-100.52a3,3,0,0,0-1.47.39l-38,21.93a3,3,0,0,0-1.47,2.55v43.86a3,3,0,0,0,1.47,2.55l38,21.93a3,3,0,0,0,2.94,0l38-21.93a3,3,0,0,0,1.47-2.55V396.72a3,3,0,0,0-1.47-2.55l-38-21.93A2.94,2.94,0,0,0,395.51,371.85Z"/><path class="cls-2" d="M174.57,626.36a4.92,4.92,0,0,1-2.47-.66l-19-11a5,5,0,0,1-2.47-4.27V588.53a5,5,0,0,1,2.47-4.27l19-11a5,5,0,0,1,4.93,0l19,11a4.94,4.94,0,0,1,2.47,4.27v21.93a5,5,0,0,1-2.47,4.27l-19,11A4.93,4.93,0,0,1,174.57,626.36Zm0-50.26a1.47,1.47,0,0,0-.73.2l-19,11a1.48,1.48,0,0,0-.74,1.27v21.93a1.47,1.47,0,0,0,.74,1.27l19,11a1.47,1.47,0,0,0,1.47,0l19-11a1.48,1.48,0,0,0,.74-1.27V588.53a1.48,1.48,0,0,0-.74-1.27l-19-11A1.49,1.49,0,0,0,174.57,576.1Z"/><path class="cls-2" d="M196.1,613.77a4.92,4.92,0,0,1-2.47-.66l-19-11a4.94,4.94,0,0,1-2.47-4.27V575.95a5,5,0,0,1,2.47-4.27l19-11a4.94,4.94,0,0,1,4.93,0l19,11a4.94,4.94,0,0,1,2.47,4.27v21.93a5,5,0,0,1-2.47,4.27l-19,11A4.92,4.92,0,0,1,196.1,613.77Zm0-50.26a1.47,1.47,0,0,0-.73.2l-19,11a1.48,1.48,0,0,0-.73,1.28v21.93a1.48,1.48,0,0,0,.74,1.28l19,11a1.48,1.48,0,0,0,1.47,0l19-11a1.48,1.48,0,0,0,.73-1.28V575.95a1.48,1.48,0,0,0-.74-1.28l-19-11A1.48,1.48,0,0,0,196.1,563.51Z"/><path class="cls-2" d="M47.37,397.74a4.94,4.94,0,0,1-2.47-.66l-19-11a5,5,0,0,1-2.47-4.27V359.91a5,5,0,0,1,2.47-4.27l19-11a5,5,0,0,1,4.93,0l19,11a5,5,0,0,1,2.47,4.27v21.93a5,5,0,0,1-2.47,4.27l-19,11A4.93,4.93,0,0,1,47.37,397.74Zm0-50.26a1.47,1.47,0,0,0-.73.2l-19,11a1.48,1.48,0,0,0-.73,1.27v21.93a1.48,1.48,0,0,0,.74,1.27l19,11a1.47,1.47,0,0,0,1.47,0l19-11a1.48,1.48,0,0,0,.73-1.27V359.91a1.48,1.48,0,0,0-.74-1.27l-19-11A1.48,1.48,0,0,0,47.37,347.48Z"/><path class="cls-2" d="M418.32,938.73a4.92,4.92,0,0,1-2.47-.66l-19-11a5,5,0,0,1-2.47-4.27V900.91a5,5,0,0,1,2.47-4.27l19-11a4.94,4.94,0,0,1,4.93,0l19,11a5,5,0,0,1,2.47,4.27v21.93a5,5,0,0,1-2.47,4.27l-19,11A4.92,4.92,0,0,1,418.32,938.73Zm0-50.26a1.48,1.48,0,0,0-.73.2l-19,11a1.48,1.48,0,0,0-.74,1.28v21.93a1.48,1.48,0,0,0,.74,1.28l19,11a1.49,1.49,0,0,0,1.47,0l19-11a1.48,1.48,0,0,0,.74-1.28V900.91a1.48,1.48,0,0,0-.74-1.28l-19-11A1.48,1.48,0,0,0,418.32,888.47Z"/><path class="cls-2" d="M395.51,848.36a4.93,4.93,0,0,1-2.46-.66l-19-11a4.94,4.94,0,0,1-2.47-4.27V810.53a4.94,4.94,0,0,1,2.47-4.27l19-11a4.94,4.94,0,0,1,4.93,0l19,11a4.94,4.94,0,0,1,2.46,4.27v21.93a4.94,4.94,0,0,1-2.46,4.27l-19,11A4.92,4.92,0,0,1,395.51,848.36Zm0-50.26a1.48,1.48,0,0,0-.73.2l-19,11a1.48,1.48,0,0,0-.74,1.27v21.93a1.48,1.48,0,0,0,.74,1.27l19,11a1.49,1.49,0,0,0,1.47,0l19-11a1.48,1.48,0,0,0,.73-1.27V810.53a1.48,1.48,0,0,0-.73-1.27l-19-11A1.48,1.48,0,0,0,395.51,798.1Z"/><path class="cls-1" d="M368.64,53.72a4.93,4.93,0,0,1-2.46-.66l-19-11a5,5,0,0,1-2.47-4.27V15.9a4.94,4.94,0,0,1,2.47-4.27l19-11a4.94,4.94,0,0,1,4.93,0l19,11a4.94,4.94,0,0,1,2.46,4.27V37.82a5,5,0,0,1-2.46,4.27l-19,11A4.94,4.94,0,0,1,368.64,53.72Zm0-50.26a1.47,1.47,0,0,0-.74.2l-19,11a1.47,1.47,0,0,0-.74,1.27V37.82a1.48,1.48,0,0,0,.74,1.27l19,11a1.48,1.48,0,0,0,1.47,0l19-11a1.48,1.48,0,0,0,.73-1.27V15.9a1.47,1.47,0,0,0-.73-1.27l-19-11A1.48,1.48,0,0,0,368.64,3.46Z"/><path class="cls-2" d="M71.06,685.51a3.42,3.42,0,0,1-1.71,3l-20.27,11.7a3.42,3.42,0,0,1-3.42,0l-20.27-11.7a3.42,3.42,0,0,1-1.71-3V662.1a3.42,3.42,0,0,1,1.71-3l20.27-11.7a3.42,3.42,0,0,1,3.42,0l20.27,11.7a3.42,3.42,0,0,1,1.71,3Z"/><path class="cls-2" d="M596,834.67a3.42,3.42,0,0,1-1.71,3L574,849.33a3.42,3.42,0,0,1-3.42,0l-20.27-11.7a3.42,3.42,0,0,1-1.71-3v-23.4a3.42,3.42,0,0,1,1.71-3l20.27-11.7a3.42,3.42,0,0,1,3.42,0l20.27,11.7a3.42,3.42,0,0,1,1.71,3Z"/><path class="cls-2" d="M242.39,223.56a3.42,3.42,0,0,1-1.71,3l-20.27,11.7a3.42,3.42,0,0,1-3.42,0l-20.27-11.7a3.42,3.42,0,0,1-1.71-3v-23.4a3.42,3.42,0,0,1,1.71-3L217,185.49a3.42,3.42,0,0,1,3.42,0l20.27,11.7a3.42,3.42,0,0,1,1.71,3Z"/><path class="cls-2" d="M572.91,826.42a3.46,3.46,0,0,1-3.46-3.46V624.54a3.46,3.46,0,0,1,6.92,0V823A3.46,3.46,0,0,1,572.91,826.42Z"/><rect class="cls-2" x="19.15" y="566.3" width="411.81" height="6.92" transform="translate(-257.08 191.84) rotate(-30.35)"/><path class="cls-2" d="M395.51,424.57a3.46,3.46,0,0,1-1.77-6.44L659.22,261a3.46,3.46,0,1,1,3.52,6L397.27,424.09A3.44,3.44,0,0,1,395.51,424.57Z"/><path class="cls-2" d="M218.29,474.6a3.46,3.46,0,0,1-1.76-6.44L390.14,365.87a3.46,3.46,0,0,1,3.52,6L220,474.12A3.45,3.45,0,0,1,218.29,474.6Z"/><path class="cls-2" d="M216.28,474.12l-10.52-6.18,3.51-6,10.52,6.18ZM195.66,462,183,454.59l3.51-6L199.16,456Zm-22.73-13.35-12.63-7.42,3.51-6,12.63,7.42Zm-22.73-13.35-12.63-7.42,3.51-6,12.63,7.42ZM127.45,422l-12.63-7.42,3.51-6L131,416ZM104.72,408.6l-12.63-7.42,3.51-6,12.63,7.42ZM82,395.25l-12.63-7.42,3.51-6,12.63,7.42ZM59.25,381.9l-12.63-7.42,3.51-6,12.63,7.42ZM36.51,368.55l-12.63-7.42,3.51-6L40,362.58Z"/><path class="cls-2" d="M526.49,242.52a3.45,3.45,0,0,1-1.75-.48L367.87,149.91a3.46,3.46,0,0,1,3.51-6l156.87,92.13a3.46,3.46,0,0,1-1.76,6.45Z"/><rect class="cls-2" x="429.18" y="856.96" width="153.73" height="6.92" transform="translate(-366.12 374.9) rotate(-30.43)"/><path class="cls-2" d="M394.83,319.55a3.44,3.44,0,0,1-1.76-.48L216.94,214.84a3.46,3.46,0,0,1,3.53-6L396.6,313.11a3.46,3.46,0,0,1-1.77,6.44Z"/><rect class="cls-2" x="392.05" y="789.04" width="6.92" height="7.32"/><path class="cls-2" d="M399,777.12H392v-14.9H399Zm0-26.82H392V735.4H399Zm0-26.82H392v-14.9H399Zm0-26.82H392v-14.9H399Zm0-26.82H392v-14.9H399ZM399,643H392v-14.9H399Zm0-26.82H392v-14.9H399Zm0-26.82H392v-14.9H399Zm0-26.82H392v-14.9H399Zm0-26.82H392v-14.9H399Zm0-26.82H392V494H399Zm0-26.82H392v-14.9H399Zm0-26.82H392v-14.9H399Z"/><rect class="cls-2" x="392.05" y="421.11" width="6.92" height="7.32"/><path class="cls-2" d="M572.78,577.18a9.87,9.87,0,0,1-4.94-1.32l-38-21.93a9.9,9.9,0,0,1-4.93-8.54V501.53a9.9,9.9,0,0,1,4.93-8.54l38-21.93a9.88,9.88,0,0,1,9.87,0l38,21.93a9.9,9.9,0,0,1,4.94,8.54v43.86a9.9,9.9,0,0,1-4.93,8.54l-38,21.93A9.86,9.86,0,0,1,572.78,577.18Zm0-100.52a3,3,0,0,0-1.47.39l-38,21.93a3,3,0,0,0-1.47,2.55v43.86a3,3,0,0,0,1.47,2.55l38,21.93a3,3,0,0,0,2.94,0l38-21.93a3,3,0,0,0,1.47-2.55V501.53a3,3,0,0,0-1.47-2.55l-38-21.93A3,3,0,0,0,572.78,476.66Z"/><rect class="cls-2" x="447.24" y="406.74" width="6.92" height="192.52" transform="translate(-211.72 634.69) rotate(-59.38)"/><polygon class="cls-2" points="372.1 146.31 366.6 148.61 365.18 146.31 365.18 138.98 372.1 138.98 372.1 146.31"/><rect class="cls-2" x="365.18" y="115.23" width="6.92" height="13.2"/><rect class="cls-2" x="365.18" y="97.34" width="6.92" height="7.32"/><rect class="cls-1" x="365.18" y="91.83" width="6.92" height="7.32"/><rect class="cls-1" x="365.18" y="69.32" width="6.92" height="12.5"/><rect class="cls-1" x="365.18" y="51.99" width="6.92" height="7.32"/><path class="cls-2" d="M218.69,119.27a4.94,4.94,0,0,1-2.47-.66l-19-11a4.94,4.94,0,0,1-2.47-4.27V81.45a5,5,0,0,1,2.47-4.27l19-11a5,5,0,0,1,4.93,0l19,11a5,5,0,0,1,2.47,4.27v21.93a4.94,4.94,0,0,1-2.47,4.27l-19,11A4.93,4.93,0,0,1,218.69,119.27Zm0-50.26a1.48,1.48,0,0,0-.74.2l-19,11a1.48,1.48,0,0,0-.73,1.27v21.93a1.47,1.47,0,0,0,.73,1.27l19,11a1.47,1.47,0,0,0,1.47,0l19-11a1.47,1.47,0,0,0,.74-1.27V81.45a1.48,1.48,0,0,0-.74-1.27l-19-11A1.47,1.47,0,0,0,218.69,69Z"/><rect class="cls-2" x="215.23" y="204.53" width="6.92" height="7.32"/><path class="cls-2" d="M222.16,194.25h-6.92V181.4h6.92Zm0-23.13h-6.92V158.28h6.92Zm0-23.13h-6.92V135.15h6.92Z"/><rect class="cls-2" x="215.23" y="117.54" width="6.92" height="7.32"/><path class="cls-1" d="M47.37,369a3.42,3.42,0,0,1-1.71,3l-20.27,11.7a3.42,3.42,0,0,1-3.42,0L1.71,371.92A3.42,3.42,0,0,1,0,369v-23.4a3.42,3.42,0,0,1,1.71-3L22,330.9a3.42,3.42,0,0,1,3.42,0l20.27,11.7a3.42,3.42,0,0,1,1.71,3Z"/></g></g></svg>