<?xml version="1.0" encoding="utf-8"?>
<!-- Generator: Adobe Illustrator 21.0.2, SVG Export Plug-In . SVG Version: 6.00 Build 0)  -->
<svg version="1.1" id="Layer_1" xmlns="http://www.w3.org/2000/svg" xmlns:xlink="http://www.w3.org/1999/xlink" x="0px" y="0px"
	 viewBox="0 0 260 260" style="enable-background:new 0 0 260 260;" xml:space="preserve">
<style type="text/css">
	.st0{fill:#272A2B;}
	.st1{fill:#4B4A4B;}
</style>
<title>icon</title>
<g id="Layer_2">
	<g id="Layer_1-2">
		<path class="st0" d="M178,44.2v-9.5h-69.5c-1.7,0-3.2-1.3-3.4-3c-0.1-1.8,1.3-3.3,3-3.4c0.1,0,0.1,0,0.2,0h72
			c2.3,0,4.1,1.8,4.1,4.1v0v11.8h8.2V26c0-3.3-2.6-6-5.9-6c0,0-0.1,0-0.1,0h-86.1c-1.5,0-2.7,1.2-2.7,2.7c0,0,0,0,0,0v21.5H178z"/>
		<path class="st1" d="M97.9,28.4H69.6c-1.2,0-2.2,1-2.2,2.2v10.7h30.5V28.4z"/>
		<path class="st0" d="M220.6,41.3H39c-1.7,0-3.1,1.4-3.1,3.1l0,0v46.2c0,1.7,1.4,3.1,3.1,3.1c0,0,0,0,0,0h181.6
			c1.7,0,3.1-1.4,3.1-3.1l0,0V44.4C223.7,42.7,222.3,41.3,220.6,41.3z M211.9,78.9c0,1.7-1.4,3.1-3.1,3.1h-158
			c-1.7,0-3.1-1.4-3.1-3.1l0,0V56.2c0-1.7,1.4-3.1,3.1-3.1c0,0,0,0,0,0h158c1.7,0,3.1,1.4,3.1,3.1l0,0V78.9z"/>
		<path class="st0" d="M39.4,109c-1.7,0-3.1,1.4-3.1,3.1l0,0v66c0,6.5,3.5,12.5,9.1,15.7l75.7,43.7c5.6,3.2,12.5,3.2,18.2,0
			l75.7-43.7c5.6-3.3,9.1-9.2,9.1-15.7v-66c0-1.7-1.4-3.1-3.1-3.1H39.4z M212.3,178.1c0,2.3-1.2,4.4-3.2,5.5l-75.7,43.7
			c-2,1.1-4.4,1.1-6.4,0l-75.7-43.7c-2-1.1-3.2-3.3-3.2-5.5v-54.2c0-1.7,1.4-3.1,3.1-3.1l0,0h158c1.7,0,3.1,1.4,3.1,3.1l0,0V178.1z"
			/>
		<path class="st0" d="M65.2,74.2h4.4c0,0,3.7-6.5,3.7-6.7s-3.7-6.7-3.7-6.7h-7.7c0,0-3.7,6.5-3.7,6.7s3.7,6.7,3.7,6.7H65.2z"/>
		<path class="st0" d="M193.8,74.2h4.4c0,0,3.7-6.5,3.7-6.7s-3.7-6.7-3.7-6.7h-7.7c0,0-3.7,6.5-3.7,6.7s3.7,6.7,3.7,6.7H193.8z"/>
		<path class="st0" d="M65.2,141.9h4.4c0,0,3.7-6.5,3.7-6.6s-3.7-6.6-3.7-6.6h-7.7c0,0-3.7,6.5-3.7,6.6s3.7,6.6,3.7,6.6H65.2z"/>
		<path class="st0" d="M193.8,141.9h4.4c0,0,3.7-6.5,3.7-6.6s-3.7-6.6-3.7-6.6h-7.7c0,0-3.7,6.5-3.7,6.6s3.7,6.6,3.7,6.6H193.8z"/>
	</g>
</g>
</svg>
